<svg width="40" height="40" viewBox="0 0 40 40" fill="none" xmlns="http://www.w3.org/2000/svg">
<rect width="40" height="40" rx="20" fill="#D8E7CB"/>
<g clip-path="url(#clip0_3179_84729)">
<path fill-rule="evenodd" clip-rule="evenodd" d="M17.1429 13.1429C17.1429 12.5117 16.6312 12 16 12C15.3688 12 14.8571 12.5117 14.8571 13.1429V14.2857H13.7143C12.7675 14.2857 12 15.0532 12 16V26.2857C12 27.2325 12.7675 28 13.7143 28H26.2857C27.2325 28 28 27.2325 28 26.2857V16C28 15.0532 27.2325 14.2857 26.2857 14.2857H25.143V13.1429C25.143 12.5117 24.6313 12 24.0001 12C23.3689 12 22.8572 12.5117 22.8572 13.1429V14.2857H17.1429V13.1429ZM18.8231 18.2032C18.8231 17.9556 19.0238 17.7549 19.2715 17.7549H20.7287C20.9763 17.7549 21.177 17.9556 21.177 18.2032V19.9864H22.9602C23.2078 19.9864 23.4085 20.1871 23.4085 20.4348V21.892C23.4085 22.1396 23.2078 22.3403 22.9602 22.3403H21.177L21.177 24.1234C21.177 24.3711 20.9762 24.5719 20.7286 24.5719H19.2714C19.0238 24.5719 18.823 24.3711 18.823 24.1234V22.3403H17.0399C16.7923 22.3403 16.5915 22.1396 16.5915 21.892V20.4348C16.5915 20.1871 16.7923 19.9864 17.0399 19.9864H18.8231V18.2032Z" fill="#446832"/>
</g>
<defs>
<clipPath id="clip0_3179_84729">
<rect width="16" height="16" fill="white" transform="translate(12 12)"/>
</clipPath>
</defs>
</svg>
